<?xml version="1.0" encoding="utf-8"?>
<!-- Generator: Adobe Illustrator 23.0.1, SVG Export Plug-In . SVG Version: 6.00 Build 0)  -->
<svg version="1.1" id="Layer_3" xmlns="http://www.w3.org/2000/svg" xmlns:xlink="http://www.w3.org/1999/xlink" x="0px" y="0px"
	 viewBox="0 0 888 300.7" style="enable-background:new 0 0 888 300.7;" xml:space="preserve">
<style type="text/css">
	.st0{opacity:0.2;fill:none;stroke:#646F7A;stroke-miterlimit:10;enable-background:new    ;}
	.st1{fill:none;stroke:#646F7A;stroke-width:1.2432;stroke-linejoin:round;stroke-miterlimit:10;}
	.st2{fill:#38373C;stroke:#646F7A;stroke-miterlimit:10;}
	.st3{fill:none;stroke:#646F7A;stroke-miterlimit:10;}
	.st4{fill:none;stroke:#1F4B68;stroke-miterlimit:10;}
	.st5{opacity:0.13;fill:#252528;enable-background:new    ;}
	.st6{fill:#313135;}
	.st7{opacity:0.2;fill:#231F20;enable-background:new    ;}
	.st8{fill:none;stroke:#646F7A;stroke-width:3.1081;stroke-miterlimit:10;}
	.st9{fill:#38373C;stroke:#646F7A;stroke-width:0.6216;stroke-miterlimit:10;}
	.st10{opacity:0.2;fill:#252528;enable-background:new    ;}
	.st11{fill:none;stroke:#646F7A;stroke-width:2.4865;stroke-miterlimit:10;}
	.st12{fill:#4472C4;}
	.st13{fill:#38373C;stroke:#646F7A;stroke-width:3.1081;stroke-miterlimit:10;}
	.st14{fill:url(#SVGID_1_);}
	.st15{fill:#FFFFFF;}
	.st16{fill:#296009;}
</style>
<line class="st0" x1="0" y1="242.1" x2="888" y2="242.1"/>
<line class="st0" x1="0" y1="178.1" x2="888" y2="178.1"/>
<line class="st0" x1="0" y1="115.4" x2="888" y2="115.4"/>
<line class="st0" x1="0" y1="59.4" x2="888" y2="59.4"/>
<path class="st1" d="M191.9,303.3c0.3-0.4,0.7-0.7,0.9-1.1l4.8-2.7l4.1-7.1l4.8-8.9c0-0.3,0.3-0.4,0.7-0.7l4.8-2.9l-0.3,0.3l4.4-3.9
	l-0.7,0.7l4.8-12.4c0.3-0.8,1.6-1.5,2.8-1.5c1.3,0,2.5,0.4,2.8,1.2l4.4,7.1l4.4-3.5l4.8-9.1c0.3-0.7,0.9-1.2,1.9-1.5
	c0.9,0,1.9,0,2.8,0.4l4.4,2.5l4.8-6.8l4.8-7.1c0.7-1.1,2.3-1.5,3.5-1.1l4.8,1.1l1.3-6c0.3-0.7,1.3-1.2,2.5-1.2
	c0.9,0,1.9,0.3,2.5,0.8l4.8,4.8l-0.3-7.6c0.3-0.8,1.6-1.2,2.8-1.2l4.4,0.3c0.9,0,1.6,0.4,2.3,0.8l4.1,3.9l4.8-18.7
	c0-0.3,0.3-0.4,0.3-0.7l4.8-5.6l4.8-7.6l4.8-9.3c0-0.3,0-0.4,0-0.4l4.4-5.2c0.7-0.8,2.3-1.2,3.5-1.1l4.8,0.8l1.9-2.7
	c0.7-0.4,1.9-0.7,2.8-0.7l4.8,0.8c0.3,0.3,0.9,0.4,1.3,0.7l4.8,3.1l0.3-3.7c0.7-0.4,1.3-0.8,1.9-0.8c0.9,0,1.6,0.3,2.3,0.4l4.8,2.5
	l-0.3-8.9c0.3-0.8,1.3-1.2,2.5-1.5c0.9,0,2.3,0.3,2.8,0.8l4.8,3.9l0.7-2.5l-0.7,0.4l4.8-3.9l-0.3,0.3l4.8-5.3
	c0.7-0.7,1.6-1.1,2.5-1.1h4.8l-0.7,0.3l4.8-1.1c1.3-0.4,2.5,0,3.2,0.7l4.4,4.4l0.7-2.7c0.7-0.3,1.3-0.4,1.9-0.4l4.8,0.3
	c0.3,0,0.9,0.3,1.3,0.3l4.8,1.6c0.3,0.3,0.9,0.4,1.3,0.8l4.8,5.6l-0.7-8.9c0-0.4,0-0.4,0.3-0.7l4.8-3.9l-0.3,0.3l4.4-5.3
	c0.3-0.3,0.7-0.4,0.9-0.7l3.9-1.5l4.8-8.3l4.8-7.1c0-0.3,0.3-0.4,0.3-0.4l4.8-3.9c0.9-0.8,2.8-1.1,4.1-0.4l4.8,2.1l0.3-3.5l4.1-4.1
	l4.8-10.8c0.3-0.7,0.9-1.1,1.9-1.2c0.9-0.3,1.9-0.3,2.5,0l4.8,1.9l0.7-5.2l4.8-5.6l5.1-4.8l4.1-8.1l4.4-10.5
	c0.3-0.4,0.7-0.7,0.9-0.8l4.8-2.9c0.3-0.3,0.3-0.3,0.7-0.4l4.8-1.9c0.3,0,0.7-0.3,0.9-0.3l4.8-0.4c0.9,0,2.3,0.3,2.8,0.7l4.8,3.7
	l4.1,1.9v-7.1c0.3-0.8,1.6-1.2,2.8-1.2c1.3,0,2.3,0.7,2.5,1.5l4.8,10.4l1.6-2.1l3.5-2.1c0.7-0.3,1.3-0.4,2.3-0.4
	c0.7,0.3,1.6,0.4,1.9,0.8l4.8,4.4l2.8,3.1l4.8,0.7c1.3,0.3,2.3,0.8,2.5,1.6l4.4,15.3l2.5-0.8c0.9,0.3,1.9,0.8,2.3,1.5l4.8,12.8
	l4.4,9.3l5.1,12l2.3-1.1c1.3,0.3,2.3,0.8,2.5,1.5l4.4,13.6l4.4,6.7l0.3-3.3c0.3-0.3,0.7-0.3,0.9-0.4l2.8,0.4l4.8-7.6l4.4-11.7
	c0.3-0.7,1.3-1.2,2.3-1.5l4.8-0.8l2.8-6.3c0.3-0.7,0.9-1.1,1.9-1.2c0.9,0,2.3,0.3,2.8,0.7l-0.3,3.1l4.8-5.2c0.7-0.7,1.6-1.1,2.5-1.1
	l1.9,1.6l4.8-18.7c0.3-0.8,1.3-1.6,2.8-1.6c1.3,0,2.5,0.4,2.8,1.2l4.8,9.1l-0.3-4.5l4.8-3.7l-0.3,0.4l4.4-4.8l4.8-5.2l5.1-4.4
	c0.3-0.4,0.9-0.7,1.6-0.8l4.8-0.8c0.9,0,1.9,0,2.5,0.4l4.8,2.5c0.7,0.3,0.9,0.7,0.9,0.8l4.8,8.9l2.8-0.4c0.7,0.3,0.9,0.4,1.6,0.7
	l3.9-19.9c0.3-0.8,1.3-1.6,2.8-1.6c1.3,0,2.5,0.7,2.8,1.5l4.8,10.8l-0.7-7.1c0.3-0.7,0.9-1.1,1.9-1.1c0.7-0.3,1.6-0.3,2.3,0l4.8,1.9
	c0.7,0.3,0.9,0.4,0.9,0.7l4.8,4.9l-0.3-6.3l4.4-7.6c0.3-0.4,0.7-0.8,1.6-1.1l4.8-1.5c0.9-0.4,2.3-0.3,2.8,0.3l4.8,2.5
	c0.3,0,0.3,0.3,0.3,0.3l4.8,3.3l3.9,0.8c0.3,0,0.7,0.3,0.7,0.3l4.4-34.1c0-1.1,1.3-1.6,2.5-1.9c1.6,0,2.8,0.4,3.2,1.2l4.8,9.1
	l4.1-7.6c0.3-0.8,1.6-1.2,2.8-1.2L754,68l4.8-6.8l4.8-6.8c0.3-0.7,1.3-1.1,2.3-1.2l4.4-0.7c0.9,0,1.9,0.3,2.8,0.7l4.8,3.7l4.8,5.2
	L783,59l-0.3,0.3l4.1-3.3l4.8-10.8c0.7-0.8,1.6-1.5,2.8-1.5c1.6,0,2.5,0.7,2.8,1.5L802,56l-0.7-4.8l-0.3,0.4l4.8-8.3
	c0-0.4,0.7-0.8,1.3-1.1l3.5-0.7l4.8-7.9l4.8-8.7c0-0.3,0.3-0.4,0.7-0.7l4.8-3.1c0.7-0.4,1.3-0.7,2.3-0.7c0.7,0,1.6,0.3,1.9,0.7
	l4.8,3.3l-0.3-4.4c0.3-0.3,0.3-0.4,0.7-0.4l4.8-2.9l-0.3,0.3l4.8-4.4c0.9-1.1,2.8-1.2,4.1-0.7"/>
<rect x="778" y="231.4" class="st2" width="78.7" height="8"/>
<rect x="778" y="274.1" class="st2" width="80" height="26.7"/>
<rect x="546" y="254.1" class="st2" width="50.7" height="46.7"/>
<g>
	<rect x="582" y="254.1" class="st2" width="9.3" height="13.3"/>
	<line class="st3" x1="582.7" y1="263.4" x2="589.4" y2="263.4"/>
</g>
<g>
	<rect x="564.7" y="254.1" class="st2" width="8" height="13.3"/>
	<line class="st3" x1="564" y1="263.4" x2="572" y2="263.4"/>
</g>
<g>
	<rect x="564.7" y="278.1" class="st2" width="17.3" height="13.3"/>
	<line class="st3" x1="568.7" y1="277.4" x2="568.7" y2="292.1"/>
	<line class="st3" x1="576.7" y1="277.4" x2="576.7" y2="292.1"/>
</g>
<rect x="528.7" y="231.4" class="st2" width="68" height="22.7"/>
<polygon class="st2" points="701.6,215.4 691,215.4 690.6,215.4 680.3,215.4 668.7,215.4 668.7,294.1 680.3,294.1 690.6,294.1 
	691,294.1 701.6,294.1 711.4,294.1 711.4,215.4 "/>
<line class="st3" x1="673.4" y1="290.1" x2="678.7" y2="290.1"/>
<polygon class="st2" points="701.8,206.1 701.5,206.1 691.1,206.1 691,206.1 680.4,206.1 680.3,206.1 668.7,206.1 668.7,215.4 
	680.3,215.4 680.4,215.4 691,215.4 691.1,215.4 701.5,215.4 701.8,215.4 711.4,215.4 711.4,206.1 "/>
<rect x="678" y="224.7" class="st2" width="8" height="13.3"/>
<line class="st3" x1="685.4" y1="231.4" x2="678.7" y2="231.4"/>
<rect x="676.7" y="222.1" class="st2" width="9.3" height="2.7"/>
<rect x="696.7" y="224.7" class="st2" width="6.7" height="13.3"/>
<line class="st3" x1="704" y1="227.4" x2="697.4" y2="227.4"/>
<rect x="695.4" y="222.1" class="st2" width="9.3" height="2.7"/>
<rect x="678" y="248.7" class="st2" width="8" height="12"/>
<line class="st3" x1="685.4" y1="254.1" x2="678.7" y2="254.1"/>
<rect x="676.7" y="246.1" class="st2" width="9.3" height="2.7"/>
<rect x="696.7" y="248.7" class="st2" width="6.7" height="12"/>
<line class="st3" x1="704" y1="254.1" x2="697.4" y2="254.1"/>
<rect x="695.4" y="246.1" class="st2" width="9.3" height="2.7"/>
<polygon class="st2" points="701.6,262.1 691,262.1 690.4,262.1 680.3,262.1 668.7,262.1 668.7,302.1 680.3,302.1 690.4,302.1 
	691,302.1 701.6,302.1 711.4,302.1 711.4,262.1 "/>
<rect x="692.7" y="272.7" class="st2" width="13.3" height="21.3"/>
<rect x="692.7" y="294.1" class="st2" width="13.3" height="8"/>
<path class="st2" d="M693.4,271.4c0,0,0.7-4.4,6-4.4c5.5,0,6,4.4,6,4.4H693.4z"/>
<path class="st2" d="M687.4,284.7h-13.3v-14.4c4-2.5,9.3-2.4,13.3,0V284.7z"/>
<line class="st3" x1="674.7" y1="276.7" x2="688" y2="276.7"/>
<rect x="668.7" y="194.1" class="st2" width="5.3" height="10.7"/>
<rect x="696.7" y="207.4" class="st2" width="6.7" height="5.3"/>
<line class="st4" x1="704" y1="206.1" x2="697.4" y2="206.1"/>
<rect x="695.4" y="204.7" class="st2" width="9.3" height="2.7"/>
<rect x="698" y="284.7" class="st3" width="4" height="2.7"/>
<line class="st3" x1="672.7" y1="301.4" x2="672.7" y2="290.7"/>
<line class="st3" x1="676.7" y1="301.4" x2="676.7" y2="290.7"/>
<line class="st3" x1="682" y1="301.4" x2="682" y2="290.7"/>
<line class="st3" x1="686" y1="301.4" x2="686" y2="290.7"/>
<line class="st3" x1="691.4" y1="301.4" x2="691.4" y2="290.7"/>
<line class="st3" x1="708.7" y1="301.4" x2="708.7" y2="290.7"/>
<line class="st3" x1="669.4" y1="295.4" x2="692" y2="295.4"/>
<line class="st3" x1="708" y1="295.4" x2="712" y2="295.4"/>
<polygon class="st5" points="710.7,264.1 676,264.1 676,216.1 669.4,216.1 669.4,264.2 669.4,266.9 669.4,301.4 676,301.4 
	676,266.7 710.7,266.7 "/>
<line class="st3" x1="693.4" y1="296.7" x2="705.4" y2="296.7"/>
<line class="st3" x1="693.4" y1="299.4" x2="705.4" y2="299.4"/>
<rect x="669.4" y="261.4" class="st6" width="41.3" height="2.7"/>
<polygon class="st2" points="446,249 420,222.6 394,249 394,300.7 446,300.7 "/>
<rect x="404.7" y="278.1" class="st2" width="8" height="22.7"/>
<rect x="427.4" y="254.1" class="st2" width="8" height="13.3"/>
<rect x="419.4" y="278.1" class="st2" width="17.3" height="13.3"/>
<rect x="404.7" y="254.1" class="st2" width="8" height="13.3"/>
<polygon class="st7" points="393.9,257.5 419.6,237.3 445.4,258.2 445.4,249 419.6,222.9 393.9,249.8 "/>
<polyline class="st8" points="388.3,254.9 420.2,222.6 452.8,255.9 "/>
<line class="st3" x1="426.7" y1="263.4" x2="434.7" y2="263.4"/>
<line class="st3" x1="405.4" y1="263.4" x2="413.4" y2="263.4"/>
<line class="st3" x1="426" y1="277.4" x2="426" y2="292.1"/>
<line class="st3" x1="432.7" y1="277.4" x2="432.7" y2="292.1"/>
<polygon class="st2" points="546,249 520,222.6 494,249 494,300.7 546,300.7 "/>
<rect x="548" y="254.7" class="st7" width="49.3" height="9.3"/>
<rect x="504.7" y="278.1" class="st2" width="12" height="22.7"/>
<rect x="810" y="278.1" class="st2" width="13.3" height="22.7"/>
<rect x="504.7" y="254.1" class="st2" width="9.3" height="13.3"/>
<polygon class="st7" points="494.2,257.5 519.8,237.3 545.4,258.2 545.4,249 519.8,222.9 494.2,249.8 "/>
<polyline class="st8" points="488.6,254.9 520.4,222.6 553.2,255.9 "/>
<g>
	<rect x="527.4" y="254.1" class="st2" width="8" height="13.3"/>
	<line class="st3" x1="526.7" y1="263.4" x2="534.7" y2="263.4"/>
</g>
<g>
	<rect x="527.4" y="278.1" class="st2" width="8" height="13.3"/>
	<line class="st3" x1="526.7" y1="287.4" x2="534.7" y2="287.4"/>
</g>
<line class="st3" x1="505.4" y1="263.4" x2="513.4" y2="263.4"/>
<rect x="596.7" y="267.4" class="st2" width="41.3" height="33.3"/>
<rect x="602" y="278.1" class="st2" width="30.7" height="22.7"/>
<line class="st3" x1="602.7" y1="286.1" x2="632" y2="286.1"/>
<line class="st3" x1="602.7" y1="292.7" x2="632" y2="292.7"/>
<rect x="767.4" y="274.1" class="st2" width="4" height="26.7"/>
<rect x="863.4" y="274.1" class="st2" width="4" height="26.7"/>
<rect x="778" y="239.4" class="st2" width="78.7" height="25.3"/>
<rect x="787.4" y="244.7" class="st2" width="8" height="13.3"/>
<rect x="783.4" y="278.1" class="st2" width="16" height="13.3"/>
<rect x="834" y="278.1" class="st2" width="16" height="13.3"/>
<rect x="838" y="244.7" class="st2" width="8" height="13.3"/>
<line class="st3" x1="790" y1="277.4" x2="790" y2="290.7"/>
<line class="st3" x1="844.7" y1="277.4" x2="844.7" y2="290.7"/>
<circle class="st9" cx="817.2" cy="289.3" r="1.6"/>
<polygon class="st10" points="858.7,285.1 776,300.5 776,273.4 858.7,273.4 "/>
<rect x="798" y="274.1" class="st2" width="4" height="26.7"/>
<rect x="831.4" y="274.1" class="st2" width="2.7" height="26.7"/>
<rect x="778" y="222.1" class="st2" width="4" height="9.3"/>
<rect x="851.4" y="222.1" class="st2" width="5.3" height="9.3"/>
<line class="st3" x1="788" y1="251.4" x2="796" y2="251.4"/>
<line class="st3" x1="838.7" y1="251.4" x2="846.7" y2="251.4"/>
<polygon class="st2" points="869,274.1 765.1,274.1 777.8,264.7 856.6,264.7 "/>
<polygon class="st10" points="857.4,242.9 776,254.1 776,240.1 857.4,240.1 "/>
<polygon class="st2" points="804.7,235.8 816.6,226.3 828.7,235.8 828.7,266.1 804.7,266.1 "/>
<rect x="812.7" y="243.4" class="st2" width="8" height="14.7"/>
<line class="st3" x1="812" y1="251.4" x2="821.4" y2="251.4"/>
<polygon class="st10" points="804.2,241.7 817.6,231.9 830.7,240.6 830.7,235.8 817.2,226.5 804.7,236.7 "/>
<polyline class="st11" points="803.1,237.4 816.7,226.5 830.8,237.4 "/>
<g>
	<circle class="st13" cx="313.5" cy="197" r="6.5"/>
</g>
<g>
	<circle class="st13" cx="406.2" cy="182.9" r="6.5"/>
</g>
<g>
	<circle class="st13" cx="512" cy="86.9" r="6.5"/>
</g>
<g>
	<circle class="st13" cx="581.9" cy="174.1" r="6.5"/>
</g>
<g>
	<circle class="st13" cx="761.9" cy="60.6" r="6.5"/>
</g>
<g>
	
		<ellipse transform="matrix(0.1602 -0.9871 0.9871 0.1602 697.9643 845.5589)" class="st13" cx="845.9" cy="12.6" rx="6.5" ry="6.5"/>
</g>
<g>
	<g>
		
			<image style="overflow:visible;opacity:0.35;enable-background:new    ;" width="89" height="58" xlink:href="EA148CB9.png"  transform="matrix(1.293 0 0 1.293 759.6991 157.7748)">
		</image>
		<g>
			
				<linearGradient id="SVGID_1_" gradientUnits="userSpaceOnUse" x1="206.1815" y1="89.8538" x2="206.1815" y2="125.1873" gradientTransform="matrix(1.3333 0 0 -1.3333 542.3004 328.346)">
				<stop  offset="0" style="stop-color:#129843"/>
				<stop  offset="1" style="stop-color:#1AAE50"/>
			</linearGradient>
			<path class="st14" d="M863.1,162.3h-91.7c-1.9,0-3.3,1.5-3.3,3.3v39.8c0,1.9,1.5,3.3,3.3,3.3h34.4l0.1,0.1l10.3,10.3
				c0.5,0.5,1.5,0.5,2,0l10.3-10.3l0.1-0.1H863c1.9,0,3.3-1.5,3.3-3.3v-39.7C866.4,163.8,864.8,162.3,863.1,162.3z"/>
		</g>
	</g>
	<g>
		<path class="st15" d="M810,200.5h-2.7v-5.3h-4.9v5.3h-2.7v-12.4h2.7v4.9h4.9v-4.9h2.7V200.5z"/>
		<path class="st15" d="M812.8,188.5c0-0.8,0.5-1.3,1.5-1.3c0.9,0,1.5,0.4,1.5,1.3c0,0.4-0.1,0.7-0.4,0.9c-0.3,0.3-0.5,0.4-1.1,0.4
			C813.4,189.8,812.8,189.3,812.8,188.5z M815.5,200.5H813V191h2.5V200.5z"/>
		<path class="st15" d="M826.6,190.9v1.3l-1.5,0.4c0.3,0.4,0.4,0.9,0.4,1.5c0,1.1-0.4,1.9-1.1,2.4s-1.7,0.8-2.9,0.8H821h-0.4
			c-0.3,0.3-0.4,0.4-0.4,0.7c0,0.4,0.5,0.5,1.5,0.5h1.6c1.1,0,1.9,0.3,2.4,0.7c0.5,0.4,0.8,1.1,0.8,2c0,1.1-0.4,2-1.3,2.5
			c-0.9,0.7-2.3,0.9-4,0.9c-1.3,0-2.4-0.3-3.1-0.7c-0.7-0.4-1.1-1.1-1.1-2c0-0.5,0.1-1.1,0.5-1.5s0.9-0.7,1.6-0.8
			c-0.3-0.1-0.5-0.3-0.7-0.5c-0.1-0.3-0.3-0.5-0.3-0.8c0-0.4,0.1-0.7,0.3-0.9s0.5-0.5,0.9-0.7c-0.5-0.3-0.9-0.5-1.2-1.1
			c-0.3-0.5-0.4-1.1-0.4-1.7c0-1.1,0.4-1.9,1.1-2.4c0.7-0.5,1.6-0.8,2.9-0.8c0.3,0,0.5,0,0.9,0.1s0.5,0.1,0.7,0.1H826.6L826.6,190.9
			L826.6,190.9z M819.2,201.8c0,0.4,0.1,0.7,0.5,0.8c0.4,0.3,0.8,0.3,1.5,0.3c0.9,0,1.6-0.1,2.1-0.4s0.8-0.7,0.8-1.1
			s-0.1-0.7-0.5-0.8c-0.4-0.1-0.8-0.3-1.5-0.3h-1.3c-0.5,0-0.9,0.1-1.2,0.4C819.4,201,819.2,201.4,819.2,201.8z M820.2,194.1
			c0,0.5,0.1,0.9,0.4,1.2c0.3,0.3,0.5,0.4,1.1,0.4s0.8-0.1,1.1-0.4s0.4-0.7,0.4-1.2c0-1.2-0.5-1.7-1.5-1.7
			C820.6,192.3,820.2,192.9,820.2,194.1z"/>
		<path class="st15" d="M836.8,200.5h-2.5v-5.6c0-1.3-0.5-2-1.5-2c-0.7,0-1.2,0.3-1.6,0.8c-0.3,0.5-0.5,1.3-0.5,2.4v4.5H828v-13.2
			h2.5v2.7c0,0.3,0,0.7,0,1.5v0.8h0.1c0.5-0.9,1.5-1.3,2.8-1.3c1.1,0,2,0.3,2.5,0.9c0.5,0.7,0.9,1.5,0.9,2.5V200.5L836.8,200.5z"/>
	</g>
	<g>
		<path class="st16" d="M797.1,177.4v3.1h-1.2v-7.7h2.1c0.9,0,1.7,0.1,2.3,0.5c0.5,0.4,0.7,0.9,0.7,1.7c0,0.9-0.5,1.6-1.5,2l2.1,3.5
			h-1.5l-1.9-3.1H797.1z M797.1,176.5h0.9c0.5,0,1.1-0.1,1.3-0.3c0.3-0.1,0.4-0.5,0.4-0.9s-0.1-0.8-0.4-0.9
			c-0.3-0.1-0.7-0.3-1.3-0.3h-0.8v2.4L797.1,176.5L797.1,176.5z"/>
		<path class="st16" d="M802.6,173.1c0-0.3,0-0.4,0.1-0.5s0.3-0.1,0.5-0.1c0.3,0,0.4,0,0.5,0.1s0.1,0.3,0.1,0.5s0,0.4-0.1,0.5
			s-0.3,0.1-0.5,0.1c-0.3,0-0.4,0-0.5-0.1S802.6,173.4,802.6,173.1z M803.8,180.5h-1.2v-5.7h1.2V180.5z"/>
		<path class="st16" d="M809.5,178.9c0,0.5-0.3,1.1-0.7,1.3s-1.1,0.4-1.7,0.4c-0.8,0-1.3-0.1-1.9-0.4v-1.1c0.7,0.3,1.3,0.5,1.9,0.5
			c0.8,0,1.2-0.3,1.2-0.7c0-0.1,0-0.3-0.1-0.4s-0.3-0.1-0.4-0.3c-0.1-0.1-0.4-0.3-0.8-0.4c-0.7-0.3-1.1-0.5-1.3-0.8
			c-0.3-0.3-0.4-0.5-0.4-1.1s0.3-0.9,0.7-1.2c0.4-0.3,0.9-0.4,1.6-0.4c0.7,0,1.3,0.1,2,0.4l-0.4,0.9c-0.7-0.3-1.2-0.4-1.6-0.4
			c-0.7,0-0.9,0.1-0.9,0.5c0,0.1,0.1,0.4,0.3,0.4c0.1,0.1,0.5,0.3,1.1,0.5c0.5,0.1,0.8,0.4,1.1,0.5s0.4,0.3,0.5,0.5
			C809.6,178.2,809.5,178.6,809.5,178.9z"/>
		<path class="st16" d="M812,177.4l0.7-0.9l1.7-1.9h1.5l-2.4,2.5l2.5,3.3h-1.5l-1.9-2.5l-0.7,0.5v2h-1.2v-8.1h1.2v4v1.1H812z"/>
		<path class="st16" d="M823.8,178.9c0,0.5-0.3,1.1-0.7,1.3c-0.4,0.3-1.1,0.4-1.7,0.4c-0.8,0-1.3-0.1-1.9-0.4v-1.1
			c0.7,0.3,1.3,0.5,1.9,0.5c0.8,0,1.2-0.3,1.2-0.7c0-0.1,0-0.3-0.1-0.4s-0.3-0.1-0.4-0.3c-0.1-0.1-0.4-0.3-0.8-0.4
			c-0.7-0.3-1.1-0.5-1.3-0.8c-0.3-0.3-0.4-0.5-0.4-1.1s0.3-0.9,0.7-1.2c0.4-0.3,0.9-0.4,1.6-0.4c0.7,0,1.3,0.1,2,0.4l-0.4,0.9
			c-0.7-0.3-1.2-0.4-1.6-0.4c-0.7,0-0.9,0.1-0.9,0.5c0,0.1,0.1,0.4,0.3,0.4c0.1,0.1,0.5,0.3,1.1,0.5c0.5,0.1,0.8,0.4,1.1,0.5
			s0.4,0.3,0.5,0.5C823.9,178.2,823.8,178.6,823.8,178.9z"/>
		<path class="st16" d="M827.4,180.6c-0.9,0-1.6-0.3-2-0.8s-0.7-1.2-0.7-2.3c0-0.9,0.3-1.7,0.7-2.3c0.5-0.5,1.2-0.8,2.1-0.8
			c0.7,0,1.2,0.1,1.6,0.4l-0.4,0.9c-0.5-0.3-0.9-0.3-1.3-0.3c-1.1,0-1.5,0.7-1.5,2c0,0.7,0.1,1.2,0.4,1.5c0.3,0.3,0.7,0.5,1.1,0.5
			c0.5,0,1.1-0.1,1.6-0.4v1.1c-0.3,0.1-0.4,0.3-0.7,0.3C828,180.6,827.8,180.6,827.4,180.6z"/>
		<path class="st16" d="M835.5,177.7c0,0.9-0.3,1.7-0.7,2.3c-0.5,0.5-1.2,0.8-2,0.8c-0.5,0-1.1-0.1-1.5-0.4s-0.8-0.5-0.9-1.1
			c-0.3-0.4-0.4-0.9-0.4-1.6c0-0.9,0.3-1.7,0.7-2.3c0.5-0.5,1.2-0.8,2-0.8s1.5,0.3,2,0.8C835.2,175.9,835.5,176.7,835.5,177.7z
			 M831.4,177.7c0,1.3,0.5,2,1.5,2c0.9,0,1.5-0.7,1.5-2s-0.5-2-1.5-2c-0.5,0-0.9,0.1-1.1,0.5C831.4,176.5,831.4,177,831.4,177.7z"/>
		<path class="st16" d="M839.9,174.6c0.3,0,0.4,0,0.7,0l-0.1,1.2c-0.1,0-0.4,0-0.5,0c-0.5,0-0.9,0.1-1.2,0.5s-0.4,0.8-0.4,1.2v3.1
			h-1.2v-5.9h0.9l0.1,1.1l0,0c0.1-0.4,0.4-0.7,0.8-0.8C839.2,174.7,839.5,174.6,839.9,174.6z"/>
		<path class="st16" d="M844.2,180.6c-0.9,0-1.6-0.3-2.1-0.8s-0.8-1.2-0.8-2.1s0.3-1.7,0.7-2.3c0.5-0.5,1.1-0.8,2-0.8
			c0.8,0,1.3,0.3,1.9,0.7c0.5,0.4,0.7,1.1,0.7,1.9v0.7h-3.9c0,0.5,0.1,0.9,0.4,1.3c0.3,0.3,0.7,0.4,1.2,0.4c0.4,0,0.7,0,0.9-0.1
			c0.3,0,0.7-0.1,0.9-0.3v1.1c-0.3,0.1-0.7,0.3-0.9,0.3C844.8,180.6,844.6,180.6,844.2,180.6z M843.9,175.5c-0.4,0-0.7,0.1-0.9,0.4
			c-0.3,0.3-0.4,0.7-0.4,1.1h2.7c0-0.5-0.1-0.8-0.4-1.1C844.6,175.7,844.3,175.5,843.9,175.5z"/>
	</g>
</g>
</svg>
